<?xml version="1.0" encoding="UTF-8"?> <svg xmlns="http://www.w3.org/2000/svg" width="214" height="34" viewBox="0 0 214 34" fill="none"><path d="M12.6895 0.835831C16.1534 0.835836 18.894 1.64329 20.8799 3.28896C22.8679 4.93641 24.0666 7.3963 24.499 10.6337L24.5361 10.9169H20.4053L20.377 10.6991C20.0985 8.5677 19.3098 7.00067 18.0352 5.96278L18.0322 5.96083C16.7527 4.89163 15.0093 4.34364 12.7744 4.34364C10.7028 4.34369 9.08001 4.76534 7.88379 5.58583C6.73157 6.39538 6.15625 7.53498 6.15625 9.03407C6.15625 9.68786 6.27695 10.2651 6.51367 10.7704C6.78155 11.2536 7.11471 11.668 7.51172 12.0165C7.94381 12.3421 8.50623 12.6467 9.20117 12.9267C9.93215 13.2096 10.6482 13.4506 11.3496 13.6483H11.3486C12.0533 13.8185 12.9142 14.0028 13.9316 14.202H13.9336C15.3553 14.4884 16.5258 14.7618 17.4434 15.0214L17.7949 15.1151C18.6271 15.3477 19.5329 15.6796 20.5117 16.1093C21.6374 16.6034 22.5204 17.177 23.1475 17.8368C23.7996 18.4936 24.3419 19.3519 24.7773 20.4022L24.9434 20.8007C25.3044 21.7488 25.4824 22.8261 25.4824 24.0282C25.4824 26.7264 24.5428 28.9005 22.6602 30.5253L22.2705 30.8427C20.1675 32.4605 17.4064 33.2577 14.0117 33.2577C9.87658 33.2577 6.65102 32.2306 4.37207 30.1415L4.37109 30.1405C2.12886 28.0584 0.923745 25.3457 0.75 22.0224L0.736328 21.7587H4.98145L5.00293 21.9852C5.25454 24.5747 6.14854 26.4818 7.65625 27.746C9.16733 29.013 11.3309 29.664 14.1826 29.664C16.3369 29.664 18.0278 29.185 19.2803 28.2528C20.5459 27.3034 21.1855 25.9503 21.1855 24.1571C21.1855 23.3582 21.035 22.6669 20.7422 22.077C20.4415 21.4714 20.0756 20.9837 19.6484 20.6073L19.6426 20.6015C19.2492 20.2318 18.6286 19.8734 17.7607 19.535C16.8866 19.1943 16.0713 18.9251 15.3145 18.7274H15.3115C14.7612 18.5782 14.0503 18.4042 13.1777 18.2059L12.252 17.9999C10.6828 17.6551 9.3791 17.3094 8.34375 16.9618L8.33789 16.9599C7.29658 16.5812 6.25752 16.0716 5.2207 15.4335C4.16232 14.7821 3.3609 13.9486 2.82617 12.9315L2.82227 12.9237C2.31874 11.8797 2.07227 10.6375 2.07227 9.20595C2.07227 6.61361 3.04256 4.56101 4.98633 3.07802C6.94713 1.57508 9.52284 0.835831 12.6895 0.835831ZM134.287 1.43739V16.329L148.876 1.51161L148.95 1.43739H154.48L154.052 1.86415L141.873 14.0009L155.102 32.2597L155.389 32.6561H150.292L150.218 32.5526L138.913 16.9794L134.287 21.6395V32.6561H129.948V1.43739H134.287ZM175.369 1.43739L175.43 1.60146L186.692 32.3202L186.815 32.6561H182.099L182.04 32.4882L178.856 23.2899H167.053L163.826 32.4892L163.768 32.6561H159.308L159.431 32.3202L170.65 1.60146L170.711 1.43739H175.369ZM203.363 1.43739C206.603 1.43744 209.099 2.44483 210.808 4.4911H210.807C212.213 6.14418 212.913 8.15039 212.913 10.495C212.913 13.4089 212.072 15.701 210.361 17.3349C208.648 18.9706 206.116 19.7674 202.809 19.7675H194.739V32.6561H190.399V1.43739H203.363ZM173.06 5.94521C172.6 7.3966 172.198 8.63977 171.848 9.67274L171.847 9.67567L168.338 19.6542H177.618L174.232 9.67274L174.23 9.66786L173.06 5.94521ZM194.739 16.1308H202.51C204.579 16.1308 206.085 15.6379 207.073 14.6962L207.075 14.6942C208.094 13.7494 208.616 12.4185 208.616 10.6669C208.616 8.88461 208.093 7.57264 207.081 6.68739L207.075 6.68251C206.084 5.76523 204.645 5.28798 202.723 5.28798H194.739V16.1308Z" fill="white" stroke="white" stroke-width="0.5"></path><path d="M74.1064 0.545898C78.1308 0.822975 81.428 2.35989 83.958 5.1748L84.2188 5.46973C86.8703 8.53704 88.1836 12.4015 88.1836 17.0254C88.1836 21.7975 86.7841 25.7602 83.959 28.873C81.1505 31.9989 77.397 33.5507 72.752 33.5508C68.1069 33.5507 64.3393 31.9999 61.5029 28.876L61.501 28.874C58.7041 25.7608 57.3203 21.797 57.3203 17.0254C57.3203 12.2538 58.7041 8.29002 61.501 5.17676L61.5029 5.1748C63.7366 2.71463 66.5477 1.2298 69.9102 0.709961L72.0537 2.86914L69.7217 5.2168C67.8179 5.71541 66.262 6.72329 65.0342 8.23242L65.0322 8.23535C63.1875 10.4757 62.2451 13.3912 62.2451 17.0254C62.2451 20.6596 63.1875 23.5751 65.0322 25.8154C66.8572 28.0316 69.4082 29.1562 72.752 29.1562C76.0957 29.1562 78.6467 28.0315 80.4717 25.8154C82.3164 23.5751 83.2588 20.6595 83.2588 17.0254C83.2588 13.3912 82.3164 10.4757 80.4717 8.23535L80.4697 8.23242C78.9465 6.36019 76.9184 5.26188 74.3477 4.94824L76.4131 2.86914L74.1064 0.545898ZM72.3301 33.0459L72.752 33.0508C72.6006 33.0508 72.4502 33.0483 72.3008 33.0449C72.3105 33.0451 72.3203 33.0457 72.3301 33.0459ZM73.5889 33.0332C73.4514 33.0391 73.3131 33.0439 73.1738 33.0469C73.3134 33.0439 73.4521 33.0391 73.5898 33.0332H73.5889ZM33.8633 1.41406L47.7715 22.7676L47.7803 22.7812L47.7881 22.7959L49.1562 25.2324V1.1875H53.7393V32.9062H49.0439L48.8965 32.6797L34.9033 11.2842L34.8916 11.2646L33.4756 8.87012V32.9062H28.8916V1.1875H33.7158L33.8633 1.41406ZM93.2031 1.57031L98.0244 21.5479L98.0264 21.5576L98.7393 24.7754C99.0431 23.477 99.3206 22.3671 99.5732 21.4473V21.4463L105.077 1.55371L105.179 1.1875H110.081L110.18 1.55762L115.513 21.4502L115.517 21.4658L116.298 24.8037C116.592 23.4977 116.847 22.4111 117.062 21.5449L117.062 21.542L122.139 1.56445L122.234 1.1875H127.163L126.988 1.82031L118.498 32.5391L118.396 32.9062H113.96L113.863 32.5312L108.274 10.8779L108.271 10.8682L107.612 8.08301C107.355 9.16458 107.115 10.0989 106.893 10.8848L106.894 10.8857L100.921 32.5391L100.82 32.9062H96.2119L96.1152 32.5303L88.2227 1.81152L88.0625 1.1875H93.1113L93.2031 1.57031ZM96.5996 32.4062H96.6006L88.708 1.6875H88.707L96.5996 32.4062ZM83.6875 18.6982C83.6962 18.5959 83.7068 18.4932 83.7139 18.3896L83.7158 18.3477C83.7081 18.4653 83.6974 18.5821 83.6875 18.6982ZM61.624 5.79492C61.5421 5.89065 61.4621 5.98761 61.3828 6.08496C61.5411 5.89052 61.7042 5.6987 61.873 5.51074L61.624 5.79492ZM83.5879 5.51074L83.3408 5.24121C83.3114 5.21006 83.2806 5.18021 83.251 5.14941C83.3647 5.26746 83.4773 5.38762 83.5879 5.51074ZM83.1377 5.03418C83.0532 4.94851 82.968 4.86415 82.8818 4.78125C82.968 4.8642 83.0532 4.94849 83.1377 5.03418ZM82.7695 4.67383C82.6845 4.5939 82.5983 4.51579 82.5117 4.43848C82.5982 4.51586 82.6846 4.59384 82.7695 4.67383ZM82.3848 4.32422C82.2596 4.21527 82.1332 4.10857 82.0049 4.00488C82.1332 4.10858 82.2597 4.21518 82.3848 4.32422Z" fill="#DF5900"></path></svg> 